<svg clip-rule="evenodd" fill-rule="evenodd" stroke-linejoin="round" stroke-miterlimit="2" viewBox="0 0 560 400" xmlns="http://www.w3.org/2000/svg"><g fill-rule="nonzero" transform="matrix(.198235 0 0 .198235 30 160.353)"><path d="m2520.38 377.23c-.22-1.378-.43-2.74-.66-4.102-1.39-8.451-3.12-16.803-5.13-25.041-3.53-14.391-7.97-28.437-13.27-42.04-4.48-11.52-9.58-22.727-15.24-33.59-7.28-13.948-15.49-27.338-24.56-40.072-11.12-15.605-23.54-30.225-37.1-43.697-5.69-5.662-11.58-11.126-17.66-16.361-13.17-11.371-27.24-21.725-42.06-30.98.13-.214.24-.443.37-.657 6.79-11.732 13.6-23.449 20.39-35.181 6.64-11.454 13.28-22.908 19.92-34.361 4.78-8.221 9.55-16.459 14.3-24.68 1.13-1.953 2.02-3.971 2.69-6.038 1.86-5.76 1.94-11.815.45-17.444-.38-1.394-.84-2.756-1.4-4.085-.56-1.33-1.21-2.626-1.95-3.873-2.54-4.266-6.17-7.975-10.73-10.683-4.03-2.395-8.54-3.823-13.16-4.233-1.94-.164-3.89-.148-5.83.049-1.6.164-3.19.46-4.77.87-5.62 1.493-10.84 4.578-14.9 9.041-1.46 1.608-2.78 3.381-3.91 5.333-4.77 8.221-9.54 16.459-14.3 24.68l-19.92 34.361c-6.79 11.733-13.6 23.449-20.39 35.182-.74 1.279-1.49 2.559-2.23 3.856-1.03-.411-2.05-.821-3.08-1.215-37.44-14.276-78.06-22.086-120.52-22.086-1.16 0-2.31 0-3.48.016-37.75.377-74.02 6.941-107.86 18.723-3.91 1.362-7.78 2.806-11.62 4.316-.69-1.198-1.4-2.396-2.08-3.594-6.79-11.733-13.6-23.449-20.39-35.182-6.64-11.453-13.28-22.907-19.92-34.361-4.78-8.221-9.55-16.458-14.3-24.679-1.14-1.953-2.45-3.725-3.91-5.333-4.06-4.464-9.28-7.549-14.9-9.042-1.58-.41-3.17-.705-4.78-.869-1.93-.197-3.88-.214-5.82-.05-4.62.394-9.13 1.822-13.17 4.234-4.56 2.707-8.16 6.416-10.72 10.682-.74 1.247-1.4 2.544-1.95 3.873-.56 1.329-1.04 2.691-1.4 4.086-1.49 5.628-1.41 11.683.44 17.443.68 2.068 1.56 4.086 2.69 6.039 4.78 8.221 9.55 16.458 14.3 24.679 6.65 11.454 13.29 22.908 19.93 34.361 6.79 11.733 13.59 23.449 20.38 35.182.05.098.12.197.17.295-13.7 8.517-26.73 17.952-39.03 28.273-7.37 6.187-14.47 12.668-21.27 19.445-13.55 13.472-25.96 28.093-37.1 43.698-9.08 12.734-17.3 26.107-24.56 40.072-5.66 10.863-10.76 22.07-15.24 33.59-5.3 13.603-9.74 27.649-13.27 42.04-2.01 8.238-3.72 16.574-5.13 25.041-.23 1.362-.44 2.74-.65 4.102-.76 4.907-1.4 9.846-1.94 14.818h673.11c-.54-4.972-1.18-9.911-1.93-14.818z" fill="#34a853"/><g fill="#202124"><path d="m2360.79 298.987c13.47-8.966 15.43-29.71 4.37-46.331-11.05-16.622-30.93-22.827-44.39-13.861-13.47 8.967-15.43 29.71-4.37 46.331 11.05 16.622 30.93 22.828 44.39 13.861z"/><path d="m2055.6 285.184c11.06-16.622 9.1-37.365-4.37-46.331-13.47-8.967-33.34-2.761-44.4 13.86-11.05 16.622-9.09 37.365 4.37 46.331 13.47 8.967 33.35 2.761 44.4-13.86z"/><path d="m1516.22 266.002c0-45.168 32.6-80.801 73.73-80.801s71.22 34.629 71.22 80.801c0 46.171-30.59 81.804-71.22 81.804s-73.73-36.134-73.73-81.804zm-141.44 125.968h57.68v-250.933h-57.68zm-9.03-334.744c0 21.58 17.56 39.145 38.12 39.145s37.62-17.565 37.62-39.145c0-20.075-17.06-37.138-37.62-37.138s-38.12 17.063-38.12 37.138zm-226.2 208.274c0-45.168 33.1-80.299 75.73-80.299 42.64 0 75.74 35.131 75.74 80.299s-33.61 82.306-75.74 82.306-75.73-36.636-75.73-82.306zm-58.69 0c0 75.28 59.19 134.5 134.42 134.5 75.24 0 134.42-59.22 134.42-134.5s-58.18-132.493-134.42-132.493c-76.23 0-134.42 57.715-134.42 132.493zm-155.98 126.47h57.68v-131.489c0-52.194 27.58-75.28 73.73-75.28 8.52 0 15.05.502 21.06 2.008v-50.689c-6.01-2.007-16.55-3.513-28.08-3.513-78.25 0-124.39 49.183-124.39 127.474zm-231.221-125.968c0-45.168 32.602-80.801 73.731-80.801 41.13 0 71.22 34.629 71.22 80.801 0 46.171-30.59 81.804-71.22 81.804-40.628 0-73.731-36.134-73.731-81.804zm-58.682 0c0 72.77 58.181 133.998 126.893 133.998 28.59 0 54.67-11.543 70.22-30.614h2.51v22.584h57.68v-391.957h-57.68v161.601h-2.51c-15.05-18.067-41.13-28.607-70.22-28.607-69.214 0-126.893 60.726-126.893 132.995zm-252.787 125.968h57.679v-147.047c0-35.13 23.574-59.722 56.175-59.722 32.602 0 56.175 24.592 56.175 59.722v147.047h57.68v-147.047c0-61.227-48.652-111.916-113.855-111.916s-113.854 50.689-113.854 111.916zm-264.825-150.56 62.194-178.162h3.009l62.194 178.162zm-117.365 150.56h65.203l32.601-93.347h166.519l32.601 93.347h65.203l-144.951-391.957h-72.225zm1584.43 8.03c28.59 0 54.67-11.543 70.22-30.614h2.51v22.584h57.68v-391.957h-57.68v161.601h-2.51c-15.05-18.067-41.13-28.607-70.22-28.607-69.21 0-126.89 60.726-126.89 132.995 0 72.268 58.18 133.998 126.89 133.998z"/></g></g></svg>